<?xml version="1.0" encoding="UTF-8"?>
<svg id="Calque_2" data-name="Calque 2" xmlns="http://www.w3.org/2000/svg" viewBox="0 0 451.03 257.44">
  <defs>
    <style>
      .cls-1 {
        fill: #330058;
      }

      .cls-1, .cls-2 {
        stroke: #fdfdfd;
        stroke-miterlimit: 10;
      }

      .cls-2 {
        fill: #0a0a0a;
        stroke-width: 2px;
      }
    </style>
  </defs>
  <g id="Calque_1-2" data-name="Calque 1">
    <g>
      <path class="cls-1" d="M296.11,39.79c-3.07-3.5-6.56-6.9-10.49-10.18-1.73-1.45-3.53-2.87-5.44-4.27-2.39-1.75-4.9-3.37-7.49-4.86-15.6-9.03-34.5-13.37-52.73-12.31-45.41,2.65-74.4,30.96-81.97,66.77-1.02,4.81-1.65,9.76-1.88,14.81-.26,5.76,0,11.64.79,17.58.66,4.89,1.68,9.81,3.08,14.74,6.44,22.62,17.9,44.19,31.54,64.78,22.9-6.5,47.48-15.07,72.65-25.58,22.84-9.54,44.2-19.86,63.43-30.45,11.32-32.54,11.51-64.78-11.49-91.03ZM219.89,136.12c-30.62-3.47-42.75-29.81-37.84-51.85,2.31-10.41,8.43-19.84,18.18-25.47,2.83-1.63,5.95-2.94,9.39-3.86,1.45-.39,2.96-.72,4.53-.96,12.94-2.02,23.54-.62,31.89,3.01,39.69,17.28,28.37,85.31-26.15,79.13Z"/>
      <path class="cls-1" d="M188.41,210.61c12.02,15.96,24.74,31.31,36.7,46.05,18.8-22.08,44.15-52.45,63.17-85-10.8,5.17-21.98,10.18-33.5,14.99-22.66,9.46-44.97,17.46-66.37,23.96Z"/>
      <path class="cls-2" d="M448,24.93c-12.91-30.31-84.73-31.23-174.14-6.17,2.66,1.51,5.24,3.14,7.7,4.9,1.96,1.41,3.82,2.85,5.6,4.31,64.57-16.4,113.79-15.99,122.4,4.23,9.43,22.13-32.55,61.52-99.81,97.8-19.78,10.67-41.74,21.08-65.22,30.69-25.88,10.6-51.16,19.24-74.7,25.79-70.45,19.6-125.37,20.46-134.52-1.02-9.34-21.95,31.85-60.85,98.11-96.88.24-5.08.88-10.07,1.93-14.93C45.93,120.18-10.63,175.11,3.03,207.17c13.39,31.44,90.14,31.25,184.16,3.27,22-6.55,44.94-14.61,68.24-24.15,11.84-4.85,23.34-9.91,34.44-15.11h0c104.09-48.83,173.05-111.19,158.12-146.24Z"/>
    </g>
  </g>
</svg>